<svg width="352" height="352" viewBox="0 0 352 352" fill="none" xmlns="http://www.w3.org/2000/svg">
<path d="M349.208 3.60927C348.204 2.50552 346.986 1.6169 345.628 0.997098C344.27 0.377298 342.801 0.0391921 341.309 0.00320957C339.817 -0.032773 338.333 0.234115 336.947 0.787748C335.561 1.34138 334.301 2.17026 333.245 3.2243L324.74 11.6867C323.71 12.718 323.131 14.1163 323.131 15.5742C323.131 17.0321 323.71 18.4304 324.74 19.4617L332.536 27.2435C333.048 27.7569 333.655 28.1643 334.324 28.4423C334.993 28.7203 335.71 28.8634 336.435 28.8634C337.159 28.8634 337.876 28.7203 338.545 28.4423C339.214 28.1643 339.822 27.7569 340.333 27.2435L348.624 18.9942C352.818 14.8077 353.209 7.98828 349.208 3.60927ZM307.546 28.8728L183.44 152.75C182.687 153.499 182.14 154.43 181.851 155.452L176.111 172.548C175.973 173.012 175.964 173.505 176.083 173.973C176.202 174.442 176.445 174.871 176.787 175.213C177.129 175.555 177.558 175.798 178.027 175.917C178.496 176.036 178.988 176.027 179.452 175.889L196.536 170.149C197.558 169.86 198.489 169.313 199.238 168.561L323.125 44.4502C324.271 43.2919 324.914 41.7282 324.914 40.0987C324.914 38.4692 324.271 36.9055 323.125 35.7472L316.284 28.8728C315.124 27.7163 313.553 27.0668 311.915 27.0668C310.277 27.0668 308.706 27.7163 307.546 28.8728Z" fill="#FF7878"/>
<path d="M338.34 81.66L216.45 203.79C211.739 208.513 205.949 212.017 199.58 214L173.68 222.67C167.533 224.406 161.035 224.471 154.854 222.86C148.674 221.248 143.035 218.018 138.519 213.501C134.002 208.985 130.772 203.346 129.16 197.165C127.549 190.985 127.614 184.487 129.35 178.34L138.02 152.44C139.997 146.073 143.495 140.283 148.21 135.57L270.34 13.66C271.459 12.5418 272.222 11.1166 272.532 9.5649C272.841 8.01316 272.684 6.40447 272.079 4.9423C271.474 3.48012 270.449 2.23013 269.134 1.3504C267.819 0.470676 266.272 0.000732985 264.69 0H56C41.1479 0 26.9041 5.89999 16.402 16.402C5.89999 26.9041 0 41.1479 0 56V296C0 310.852 5.89999 325.096 16.402 335.598C26.9041 346.1 41.1479 352 56 352H296C310.852 352 325.096 346.1 335.598 335.598C346.1 325.096 352 310.852 352 296V87.31C351.999 85.7277 351.529 84.1811 350.65 82.8659C349.77 81.5507 348.52 80.5259 347.058 79.9211C345.596 79.3163 343.987 79.1587 342.435 79.4683C340.883 79.7778 339.458 80.5405 338.34 81.66Z" fill="#FF7878"/>
</svg>
