<svg width="480" height="448" viewBox="0 0 480 448" fill="none" xmlns="http://www.w3.org/2000/svg">
<path d="M245.56 69.2801C244.072 67.8559 242.091 67.061 240.03 67.061C237.97 67.061 235.989 67.8559 234.5 69.2801L50.4004 245.15C49.6185 245.898 48.9965 246.797 48.572 247.792C48.1474 248.787 47.9292 249.858 47.9304 250.94L47.9004 416C47.9004 424.487 51.2718 432.626 57.273 438.628C63.2741 444.629 71.4135 448 79.9004 448H176C180.244 448 184.314 446.314 187.314 443.314C190.315 440.313 192 436.244 192 432V296C192 293.878 192.843 291.844 194.344 290.343C195.844 288.843 197.879 288 200 288H280C282.122 288 284.157 288.843 285.657 290.343C287.158 291.844 288 293.878 288 296V432C288 436.244 289.686 440.313 292.687 443.314C295.687 446.314 299.757 448 304 448H400.06C408.547 448 416.687 444.629 422.688 438.628C428.689 432.626 432.06 424.487 432.06 416V250.94C432.062 249.858 431.843 248.787 431.419 247.792C430.994 246.797 430.372 245.898 429.59 245.15L245.56 69.2801Z" fill="white"/>
<path d="M474.91 212.15L400.11 140.59V32C400.11 27.7565 398.425 23.6869 395.424 20.6863C392.423 17.6857 388.354 16 384.11 16H336.11C331.867 16 327.797 17.6857 324.797 20.6863C321.796 23.6869 320.11 27.7565 320.11 32V64L262.19 8.62C256.77 3.14 248.71 0 240 0C231.32 0 223.28 3.14 217.86 8.63L5.16038 212.13C-1.05962 218.13 -1.83962 228 3.82038 234.5C5.24169 236.141 6.98199 237.475 8.93536 238.422C10.8887 239.368 13.0143 239.908 15.1828 240.007C17.3512 240.106 19.5172 239.763 21.5488 238.999C23.5804 238.234 25.4353 237.064 27.0004 235.56L234.5 37.28C235.989 35.8558 237.97 35.0609 240.03 35.0609C242.091 35.0609 244.072 35.8558 245.56 37.28L453.08 235.56C456.137 238.491 460.232 240.091 464.466 240.009C468.701 239.926 472.73 238.168 475.67 235.12C481.81 228.76 481.3 218.26 474.91 212.15Z" fill="white"/>
</svg>
