<svg width="512" height="512" viewBox="0 0 512 512" fill="none" xmlns="http://www.w3.org/2000/svg">
<path d="M439.91 112H416.09C416.066 112 416.043 112.009 416.026 112.026C416.009 112.043 416 112.066 416 112.09V416C416 424.487 419.371 432.626 425.373 438.627C431.374 444.629 439.513 448 448 448C456.487 448 464.626 444.629 470.627 438.627C476.629 432.626 480 424.487 480 416V152.09C480 141.457 475.776 131.26 468.258 123.742C460.74 116.224 450.543 112 439.91 112Z" fill="white"/>
<path d="M384 416V72C384 66.7471 382.965 61.5457 380.955 56.6927C378.945 51.8396 375.999 47.4301 372.284 43.7157C368.57 40.0014 364.16 37.055 359.307 35.0448C354.454 33.0346 349.253 32 344 32H72C61.3913 32 51.2172 36.2143 43.7157 43.7157C36.2143 51.2172 32 61.3913 32 72V424C32 438.852 37.9 453.096 48.402 463.598C58.9041 474.1 73.1479 480 88 480H430.85C431.001 480.001 431.152 479.973 431.292 479.915C431.432 479.858 431.559 479.773 431.666 479.666C431.773 479.559 431.858 479.432 431.915 479.292C431.973 479.152 432.001 479.001 432 478.85C431.999 478.599 431.916 478.354 431.762 478.155C431.608 477.957 431.393 477.814 431.15 477.75C417.615 474.037 405.673 465.986 397.156 454.831C388.638 443.676 384.017 430.035 384 416ZM96 128C96 123.757 97.6857 119.687 100.686 116.686C103.687 113.686 107.757 112 112 112H176C180.243 112 184.313 113.686 187.314 116.686C190.314 119.687 192 123.757 192 128V192C192 196.243 190.314 200.313 187.314 203.314C184.313 206.314 180.243 208 176 208H112C107.757 208 103.687 206.314 100.686 203.314C97.6857 200.313 96 196.243 96 192V128ZM304 400H112.45C103.84 400 96.45 393.38 96.02 384.77C95.9158 382.607 96.2518 380.445 97.0079 378.415C97.7639 376.385 98.9241 374.53 100.418 372.962C101.912 371.394 103.709 370.146 105.7 369.293C107.691 368.44 109.834 368 112 368H303.55C312.16 368 319.55 374.62 319.98 383.23C320.084 385.393 319.748 387.555 318.992 389.585C318.236 391.615 317.076 393.47 315.582 395.038C314.088 396.606 312.291 397.854 310.3 398.707C308.309 399.56 306.166 400 304 400ZM304 336H112.45C103.84 336 96.45 329.38 96.02 320.77C95.9158 318.607 96.2518 316.445 97.0079 314.415C97.7639 312.385 98.9241 310.53 100.418 308.962C101.912 307.394 103.709 306.146 105.7 305.293C107.691 304.44 109.834 304 112 304H303.55C312.16 304 319.55 310.62 319.98 319.23C320.084 321.393 319.748 323.555 318.992 325.585C318.236 327.615 317.076 329.47 315.582 331.038C314.088 332.606 312.291 333.854 310.3 334.707C308.309 335.56 306.166 336 304 336ZM304 272H112.45C103.84 272 96.45 265.38 96.02 256.77C95.9158 254.607 96.2518 252.445 97.0079 250.415C97.7639 248.385 98.9241 246.53 100.418 244.962C101.912 243.394 103.709 242.146 105.7 241.293C107.691 240.44 109.834 240 112 240H303.55C312.16 240 319.55 246.62 319.98 255.23C320.084 257.393 319.748 259.555 318.992 261.585C318.236 263.615 317.076 265.47 315.582 267.038C314.088 268.606 312.291 269.854 310.3 270.707C308.309 271.56 306.166 272 304 272ZM304 208H240.45C231.84 208 224.45 201.38 224.02 192.77C223.916 190.607 224.252 188.445 225.008 186.415C225.764 184.385 226.924 182.53 228.418 180.962C229.912 179.394 231.709 178.146 233.7 177.293C235.691 176.44 237.834 176 240 176H303.55C312.16 176 319.55 182.62 319.98 191.23C320.084 193.393 319.748 195.555 318.992 197.585C318.236 199.615 317.076 201.47 315.582 203.038C314.088 204.606 312.291 205.854 310.3 206.707C308.309 207.56 306.166 208 304 208ZM304 144H240.45C231.84 144 224.45 137.38 224.02 128.77C223.916 126.607 224.252 124.445 225.008 122.415C225.764 120.385 226.924 118.53 228.418 116.962C229.912 115.394 231.709 114.146 233.7 113.293C235.691 112.44 237.834 112 240 112H303.55C312.16 112 319.55 118.62 319.98 127.23C320.084 129.393 319.748 131.555 318.992 133.585C318.236 135.615 317.076 137.47 315.582 139.038C314.088 140.606 312.291 141.854 310.3 142.707C308.309 143.56 306.166 144 304 144Z" fill="white"/>
</svg>
