<svg width="1661" height="1661" viewBox="0 0 1661 1661" fill="none" xmlns="http://www.w3.org/2000/svg">
<path d="M1482.18 0H177.861C130.69 0 85.4498 18.7389 52.0944 52.0944C18.7389 85.4498 0 130.69 0 177.861L0 1482.18C0 1529.35 18.7389 1574.59 52.0944 1607.94C85.4498 1641.3 130.69 1660.04 177.861 1660.04H1482.18C1529.35 1660.04 1574.59 1641.3 1607.94 1607.94C1641.3 1574.59 1660.04 1529.35 1660.04 1482.18V177.861C1660.04 130.69 1641.3 85.4498 1607.94 52.0944C1574.59 18.7389 1529.35 0 1482.18 0ZM1421.44 1138.94L1365.86 1379.8C1363.04 1392.04 1356.15 1402.97 1346.32 1410.79C1336.49 1418.62 1324.29 1422.88 1311.73 1422.89C718.856 1422.89 237.148 942.257 237.148 348.312C237.589 335.863 242.014 323.885 249.772 314.14C257.53 304.395 268.21 297.396 280.243 294.175L521.096 238.593C525.205 237.725 529.385 237.241 533.584 237.148C544.332 237.691 554.739 241.101 563.725 247.024C572.71 252.947 579.946 261.167 584.682 270.831L695.845 530.212C698.568 537.205 700.084 544.61 700.329 552.111C699.424 568.565 692.107 584.009 679.949 595.131L539.55 710C624.62 890.304 769.735 1035.42 950.038 1120.49L1064.91 980.09C1076.03 967.931 1091.47 960.615 1107.93 959.71C1115.43 959.951 1122.83 961.467 1129.83 964.193L1389.21 1075.36C1398.88 1080.09 1407.1 1087.32 1413.02 1096.31C1418.95 1105.29 1422.36 1115.7 1422.89 1126.45C1422.82 1130.65 1422.33 1134.84 1421.44 1138.94Z" fill="#05FF00"/>
</svg>
