<svg width="513" height="513" viewBox="0 0 513 513" fill="none" xmlns="http://www.w3.org/2000/svg">
<path d="M259.792 48.5401C142.812 46.9601 47.3124 142.46 48.8924 259.44C50.4524 371.63 141.802 462.98 253.992 464.54C370.992 466.14 466.472 370.64 464.872 253.66C463.332 141.45 371.982 50.1001 259.792 48.5401ZM386.212 375.79C385.814 376.221 385.326 376.559 384.782 376.78C384.239 377.001 383.653 377.099 383.067 377.069C382.481 377.038 381.909 376.879 381.392 376.603C380.874 376.327 380.424 375.94 380.072 375.47C371.128 363.767 360.174 353.748 347.722 345.88C322.262 329.54 290.002 320.54 256.892 320.54C223.782 320.54 191.522 329.54 166.062 345.88C153.611 353.745 142.657 363.761 133.712 375.46C133.361 375.93 132.91 376.317 132.393 376.593C131.875 376.869 131.303 377.028 130.717 377.059C130.131 377.089 129.546 376.991 129.002 376.77C128.459 376.549 127.971 376.211 127.572 375.78C98.2291 344.104 81.6073 302.713 80.8924 259.54C79.2624 162.23 159.112 80.7801 256.462 80.5401C353.812 80.3001 432.892 159.35 432.892 256.54C432.926 300.754 416.253 343.348 386.212 375.79Z" fill="white"/>
<path d="M256.893 144.54C237.173 144.54 219.343 151.93 206.673 165.36C194.003 178.79 187.673 197.36 189.103 217.29C192.003 256.54 222.413 288.54 256.893 288.54C291.373 288.54 321.723 256.54 324.683 217.3C326.163 197.56 319.883 179.16 307.003 165.48C294.283 151.98 276.483 144.54 256.893 144.54Z" fill="white"/>
</svg>
