<svg width="1661" height="1661" viewBox="0 0 1661 1661" fill="none" xmlns="http://www.w3.org/2000/svg">
<path d="M1660.46 178.058V1482.37C1660.46 1580.6 1580.83 1660.23 1482.6 1660.23H178.285C80.054 1660.23 0.424072 1580.6 0.424072 1482.37V178.058C0.424072 79.8263 80.054 0.196289 178.285 0.196289H1482.6C1580.83 0.196289 1660.46 79.8263 1660.46 178.058ZM1334.38 237.345H919.481C840.507 237.345 800.611 333.171 856.596 389.16L975.111 507.686L250.597 1232.2C233.233 1249.56 233.233 1277.72 250.597 1295.09L365.573 1410.06C382.941 1427.43 411.095 1427.43 428.458 1410.06L1152.97 685.551L1271.5 804.092C1327.19 859.774 1423.31 820.674 1423.31 741.207V326.275C1423.31 277.16 1383.5 237.345 1334.38 237.345Z" fill="#0094FF"/>
</svg>
