<svg width="1661" height="1661" viewBox="0 0 1661 1661" fill="none" xmlns="http://www.w3.org/2000/svg">
<path d="M830.443 337.181C561.058 337.181 342.066 556.172 341.695 825.558C341.695 917.824 367.633 1007.87 416.545 1085.31L428.032 1103.84L378.75 1283.92L563.651 1235.38L581.437 1246.13C656.287 1290.59 742.254 1314.31 830.073 1314.31H830.443C1099.46 1314.31 1324.38 1095.31 1324.38 825.929C1324.38 695.497 1268.06 572.847 1175.79 480.581C1083.15 387.945 960.875 337.181 830.443 337.181ZM1117.62 1035.29C1105.39 1069.75 1046.84 1100.87 1018.68 1104.95C971.991 1111.99 935.678 1108.28 842.671 1068.26C695.565 1004.53 599.224 856.313 591.813 846.679C584.402 837.045 531.785 767.012 531.785 694.756C531.785 622.5 569.58 586.928 583.29 572.106C596.63 557.284 612.563 553.579 622.568 553.579C632.202 553.579 642.207 553.579 650.729 553.949C659.622 554.32 671.85 550.614 683.708 579.146C695.936 608.419 725.209 680.675 728.914 688.086C732.62 695.497 735.213 704.02 730.026 713.654C701.864 769.976 671.85 767.753 687.043 793.691C743.736 891.144 800.429 924.864 886.766 968.218C901.588 975.629 910.11 974.517 918.633 964.512C927.155 954.878 955.317 921.529 964.951 907.078C974.585 892.256 984.59 894.85 997.929 899.667C1011.27 904.484 1083.52 940.056 1098.35 947.467C1113.17 954.878 1122.8 958.584 1126.51 964.512C1129.84 971.553 1129.84 1001.2 1117.62 1035.29ZM1482.6 0.726562H178.285C80.0911 0.726562 0.424072 80.3936 0.424072 178.588V1482.9C0.424072 1581.1 80.0911 1660.76 178.285 1660.76H1482.6C1580.8 1660.76 1660.46 1581.1 1660.46 1482.9V178.588C1660.46 80.3936 1580.8 0.726562 1482.6 0.726562ZM830.073 1413.24C731.508 1413.24 634.796 1388.41 549.2 1341.73L237.572 1423.62L320.945 1119.03C269.439 1030.1 242.389 928.94 242.389 825.188C242.76 501.332 506.217 237.875 830.073 237.875C987.183 237.875 1134.66 299.015 1245.82 410.178C1356.62 521.341 1423.31 668.818 1423.31 825.929C1423.31 1149.78 1153.93 1413.24 830.073 1413.24Z" fill="#05FF00"/>
</svg>
